<?xml version="1.0" encoding="UTF-8"?> <svg xmlns="http://www.w3.org/2000/svg" viewBox="0 0 608.56 157.66"> <defs> <style>.cls-1{fill:#fff;}</style> </defs> <title>Ресурс 11</title> <g id="Слой_2" data-name="Слой 2"> <g id="Слой_1-2" data-name="Слой 1"> <path class="cls-1" d="M166.22,137.49h-1.66l.87-5.08c.06-.26-.05-.42-.33-.42h-2.39a.43.43,0,0,0-.42.36l-.9,5.14h-1.62a6.45,6.45,0,0,0-6.6,5.61l-.59,3.06a4.66,4.66,0,0,0,4.69,5.89h1.52l-.88,4.91a.31.31,0,0,0,.34.42h2.39a.42.42,0,0,0,.44-.36l.87-5h1.41c3.56,0,6.23-1.63,6.93-5.44l.59-3.15C171.55,139.87,169.53,137.49,166.22,137.49Zm-6.93,11.7h-1.38c-1.79,0-2.49-.87-2.1-2.92l.53-3c.37-2,1.52-3,3.23-3h1.32Zm8.39-5.87-.53,3a3.17,3.17,0,0,1-3.43,2.92h-1.26l1.6-8.9h1.6C167.43,140.29,168.07,141.16,167.68,143.32Z"></path> <path class="cls-1" d="M185.69,137.49h-2.75a.68.68,0,0,0-.51.25l-4.18,5.67c-.92,1.26-1.93,2.75-2.63,3.87l-.06,0c.31-1.26.59-2.55.81-3.73l1-5.58a.33.33,0,0,0-.33-.45h-2.39a.45.45,0,0,0-.42.36l-2.41,13.78a.32.32,0,0,0,.34.42h2.72a.56.56,0,0,0,.47-.25l3.93-5.25c1.21-1.57,2.08-2.89,2.89-4.12h.06c-.25,1.2-.56,2.46-.84,3.9l-1,5.3a.35.35,0,0,0,.37.42h2.41a.42.42,0,0,0,.42-.37l2.44-13.74A.36.36,0,0,0,185.69,137.49Z"></path> <path class="cls-1" d="M198.56,140l.4-2a.36.36,0,0,0-.37-.45H188a.4.4,0,0,0-.42.36l-.36,2.05c-.06.25.08.42.36.42h3.62l-2.07,11.31a.31.31,0,0,0,.33.42h2.44a.37.37,0,0,0,.42-.37l2.11-11.36h3.67A.38.38,0,0,0,198.56,140Z"></path> <path class="cls-1" d="M211.75,137.49h-2.41a.42.42,0,0,0-.45.36l-1,5.28H202.8l.95-5.19c.06-.26-.05-.45-.33-.45H201a.41.41,0,0,0-.43.36L198,151.63a.32.32,0,0,0,.34.42h2.44a.37.37,0,0,0,.42-.37l1.06-5.72h5.11l-1,5.67a.32.32,0,0,0,.34.42h2.44a.41.41,0,0,0,.45-.37l2.52-13.74A.34.34,0,0,0,211.75,137.49Z"></path> <path class="cls-1" d="M220.39,137.15c-3,0-6,1.57-6.74,5.33l-.78,4.35c-.67,3.62,2,5.56,5.19,5.56a10,10,0,0,0,6-1.88c.22-.14.22-.34.11-.57l-1-1.65a.34.34,0,0,0-.54-.11,7.52,7.52,0,0,1-4.12,1.4c-1.82,0-2.81-.87-2.41-2.67l.14-.75h8.44a.38.38,0,0,0,.42-.37l.51-2.83C226.34,139,223.84,137.15,220.39,137.15Zm2.13,5.53-.17.95h-5.66l.19-.95a3.14,3.14,0,0,1,3.23-2.72C221.79,140,222.91,140.8,222.52,142.68Z"></path> <path class="cls-1" d="M234.16,137.15a6.53,6.53,0,0,0-6.76,5.41l-.62,3.54c-.67,3.87,1.43,6.29,5.11,6.29a9.34,9.34,0,0,0,5-1.38.41.41,0,0,0,.14-.56l-1-1.82a.36.36,0,0,0-.56-.14,6.18,6.18,0,0,1-3.31,1.06c-1.63,0-2.61-1.09-2.22-3.22l.62-3.54A3.23,3.23,0,0,1,234,140a5,5,0,0,1,2.72.82.39.39,0,0,0,.56-.06l1.26-1.63a.35.35,0,0,0-.06-.56A7.2,7.2,0,0,0,234.16,137.15Z"></path> <path class="cls-1" d="M274.9,137.49h-9.18a.46.46,0,0,0-.45.36c-1.88,9.09-3,11-4.66,11.2a.42.42,0,0,0-.39.39l-.36,2.07-4.15-7.6,6.17-5.92c.22-.25.11-.5-.2-.5h-2.94a.74.74,0,0,0-.48.19l-5.5,5.39.93-5.13c0-.26-.11-.45-.37-.45h-2.44a.4.4,0,0,0-.42.36L248,151.63a.34.34,0,0,0,.36.42h2.45a.39.39,0,0,0,.42-.37l.78-4.37,1.35-1.29,3,5.75a.43.43,0,0,0,.45.28h2.75a.35.35,0,0,0,.28-.11.3.3,0,0,0,.3.17c4.07-.17,5.67-2.61,7.69-11.79h3.68l-2.05,11.31c-.06.25.05.42.34.42h2.44a.41.41,0,0,0,.45-.37l2.52-13.74A.34.34,0,0,0,274.9,137.49Z"></path> <path class="cls-1" d="M246.45,142.14H239.6a.41.41,0,0,0-.42.37l-.39,2.27c-.06.25.05.42.34.42H246a.38.38,0,0,0,.42-.36l.4-2.28A.31.31,0,0,0,246.45,142.14Z"></path> <path class="cls-1" d="M289.4,137.49h-2.47a.42.42,0,0,0-.42.36l-1.82,10.27a5,5,0,0,1-2.64.7c-1.52,0-2.72-.7-2.3-2.92l1.4-8c.06-.26,0-.45-.34-.45h-2.44a.45.45,0,0,0-.42.36l-1.4,7.77c-.65,3.71,1.57,6,4.88,6a9.3,9.3,0,0,0,2.75-.48c-.36,2.5-1.49,3.65-3.62,3.65a5.19,5.19,0,0,1-3.37-1.18.37.37,0,0,0-.58.06l-1.35,1.62a.37.37,0,0,0,0,.56,6.9,6.9,0,0,0,5.13,1.8c4.1,0,6.23-2.08,7-6.48l2.36-13.24A.37.37,0,0,0,289.4,137.49Z"></path> <path class="cls-1" d="M303.79,131.09c-.11-.23-.28-.28-.53-.17A18,18,0,0,1,299,132c-2.72.42-5.83,2.11-6.5,5.9L291,146.47c-.7,4,2,5.92,5.16,5.92,3,0,6.17-1.58,6.85-5.45l.47-2.78c.62-3.56-1.48-5.89-4.65-5.89a6.43,6.43,0,0,0-3.29.76l.14-.79c.37-2.21,2.3-3,4.1-3.31a20.43,20.43,0,0,0,4.6-1.37.44.44,0,0,0,.2-.56Zm-5.86,10c1.93,0,2.61.89,2.27,2.89l-.45,2.8a3.24,3.24,0,0,1-3.42,2.7c-1.27,0-2.53-.59-2.16-2.5l.87-5A5.32,5.32,0,0,1,297.93,141.11Z"></path> <path class="cls-1" d="M402.6,137.49h-2.76a.68.68,0,0,0-.5.25l-4.18,5.67c-.93,1.26-1.94,2.75-2.64,3.87l-.06,0c.31-1.26.59-2.55.82-3.73l1-5.58a.33.33,0,0,0-.34-.45h-2.38a.44.44,0,0,0-.42.36l-2.41,13.78a.31.31,0,0,0,.33.42h2.72a.57.57,0,0,0,.48-.25l3.93-5.25c1.21-1.57,2.08-2.89,2.89-4.12h.06c-.26,1.2-.57,2.46-.85,3.9l-.95,5.3a.34.34,0,0,0,.37.42h2.41a.43.43,0,0,0,.42-.37L403,137.94A.36.36,0,0,0,402.6,137.49Z"></path> <path class="cls-1" d="M323.68,137.49h-2.75a.68.68,0,0,0-.5.25l-4.18,5.67c-.93,1.26-1.94,2.75-2.64,3.87l-.06,0c.31-1.26.59-2.55.81-3.73l1-5.58a.34.34,0,0,0-.34-.45h-2.38a.45.45,0,0,0-.43.36l-2.41,13.78a.32.32,0,0,0,.34.42h2.72a.58.58,0,0,0,.48-.25l3.92-5.25c1.21-1.57,2.08-2.89,2.9-4.12h.05c-.25,1.2-.56,2.46-.84,3.9l-.95,5.3a.34.34,0,0,0,.36.42h2.41a.41.41,0,0,0,.42-.37L324,137.94A.36.36,0,0,0,323.68,137.49Z"></path> <path class="cls-1" d="M339.33,134.93a20.35,20.35,0,0,0,4.61-1.37.43.43,0,0,0,.19-.56l-.78-1.91a.36.36,0,0,0-.54-.17,18,18,0,0,1-4.29,1.12c-2.72.42-5.84,2.11-6.51,5.9l-1.46,8.53c-.7,4,2.05,5.92,5.16,5.92s6.18-1.58,6.85-5.45l.48-2.78c.61-3.56-1.49-5.89-4.66-5.89a6.46,6.46,0,0,0-3.29.76l.15-.79C335.6,136,337.54,135.24,339.33,134.93Zm-1.85,6.18c1.94,0,2.61.89,2.27,2.89l-.45,2.8a3.23,3.23,0,0,1-3.42,2.7c-1.26,0-2.52-.59-2.16-2.5l.87-5A5.32,5.32,0,0,1,337.48,141.11Z"></path> <path class="cls-1" d="M351.7,142.23H349l.76-4.29a.34.34,0,0,0-.36-.45h-2.45a.4.4,0,0,0-.42.36l-2.44,13.78a.34.34,0,0,0,.37.42h5.67c3.33,0,5.58-1.29,6.17-4.66C356.81,144.28,354.93,142.23,351.7,142.23Zm1.35,4.91c-.31,1.43-1.35,2.16-3.14,2.16h-2.19l.79-4.32h2.32C352.71,145,353.36,145.62,353.05,147.14Z"></path> <path class="cls-1" d="M371.43,137.15c-3.6,0-6.34,2.19-6.91,5.33l-.11.56h-2.3l.9-5.1c0-.26-.09-.45-.37-.45H360.2a.42.42,0,0,0-.42.36l-2.44,13.78a.34.34,0,0,0,.36.42h2.45a.39.39,0,0,0,.42-.37l1-5.72h2.3l-.06.48a4.89,4.89,0,0,0,5.08,5.95c3.7,0,6.31-2,7-5.39l.67-3.82A4.91,4.91,0,0,0,371.43,137.15Zm1.88,5.81-.71,3.84a3.1,3.1,0,0,1-3.36,2.72c-1.74,0-2.47-1.17-2.13-2.94l.64-3.85a3.26,3.26,0,0,1,3.31-2.75C372.86,140,373.56,141.39,373.31,143Z"></path> <path class="cls-1" d="M389.19,140l.39-2a.37.37,0,0,0-.37-.45H378.66a.4.4,0,0,0-.42.36l-.36,2.05c-.06.25.08.42.36.42h3.62l-2.08,11.31a.32.32,0,0,0,.34.42h2.44c.26,0,.4-.11.42-.37l2.11-11.36h3.67A.39.39,0,0,0,389.19,140Z"></path> <path class="cls-1" d="M422.43,137.49H420a.41.41,0,0,0-.42.36l-1.83,10.27a5,5,0,0,1-2.63.7c-1.52,0-2.73-.7-2.3-2.92l1.4-8c.05-.26-.06-.45-.34-.45H411.4a.44.44,0,0,0-.42.36l-1.4,7.77c-.65,3.71,1.57,6,4.88,6a9.3,9.3,0,0,0,2.75-.48c-.37,2.5-1.49,3.65-3.62,3.65a5.17,5.17,0,0,1-3.37-1.18.38.38,0,0,0-.59.06l-1.35,1.62a.39.39,0,0,0,0,.56,6.92,6.92,0,0,0,5.14,1.8c4.1,0,6.23-2.08,7-6.48l2.35-13.24A.36.36,0,0,0,422.43,137.49Z"></path> <path class="cls-1" d="M433,148.63a.36.36,0,0,0-.56-.14,6.13,6.13,0,0,1-3.31,1.06c-1.63,0-2.61-1.09-2.22-3.22l.62-3.54A3.23,3.23,0,0,1,430.9,140a5,5,0,0,1,2.72.82.39.39,0,0,0,.56-.06l1.26-1.63a.36.36,0,0,0-.05-.56,7.24,7.24,0,0,0-4.32-1.4,6.54,6.54,0,0,0-6.77,5.41l-.61,3.54c-.68,3.87,1.43,6.29,5.1,6.29a9.4,9.4,0,0,0,5-1.38.42.42,0,0,0,.14-.56Z"></path> <path class="cls-1" d="M449.16,137.49H440a.44.44,0,0,0-.45.36c-1.88,9.09-3,11-4.66,11.2a.41.41,0,0,0-.39.39l-.4,2.22c0,.28.09.45.37.45,4.07-.17,5.67-2.61,7.69-11.79h3.67l-2.05,11.31a.31.31,0,0,0,.34.42h2.44a.41.41,0,0,0,.45-.37l2.53-13.74A.35.35,0,0,0,449.16,137.49Z"></path> <path class="cls-1" d="M463.67,137.49h-2.48a.42.42,0,0,0-.42.36L459,148.12a5,5,0,0,1-2.64.7c-1.51,0-2.72-.7-2.3-2.92l1.41-8c.05-.26-.06-.45-.34-.45h-2.44a.43.43,0,0,0-.42.36l-1.41,7.77c-.64,3.71,1.57,6,4.89,6a9.35,9.35,0,0,0,2.75-.48c-.37,2.5-1.49,3.65-3.62,3.65a5.15,5.15,0,0,1-3.37-1.18.38.38,0,0,0-.59.06l-1.35,1.62a.37.37,0,0,0,0,.56,6.92,6.92,0,0,0,5.14,1.8c4.09,0,6.23-2.08,7-6.48L464,137.94A.36.36,0,0,0,463.67,137.49Z"></path> <path class="cls-1" d="M475.42,140l.36-2a.34.34,0,0,0-.36-.45h-8.08a.39.39,0,0,0-.42.36l-2.47,13.78c-.06.25.08.42.36.42h2.47a.4.4,0,0,0,.42-.37l2-11.33H475A.41.41,0,0,0,475.42,140Z"></path> <path class="cls-1" d="M488.8,137.49h-2.75a.66.66,0,0,0-.5.25l-4.19,5.67c-.92,1.26-1.93,2.75-2.63,3.87l-.06,0c.31-1.26.59-2.55.81-3.73l1-5.58a.34.34,0,0,0-.34-.45h-2.39a.45.45,0,0,0-.42.36l-2.41,13.78a.32.32,0,0,0,.34.42H478a.59.59,0,0,0,.48-.25l3.92-5.25c1.21-1.57,2.08-2.89,2.89-4.12h.06c-.25,1.2-.56,2.46-.84,3.9l-1,5.3a.34.34,0,0,0,.36.42h2.41a.41.41,0,0,0,.42-.37l2.44-13.74A.36.36,0,0,0,488.8,137.49Z"></path> <path class="cls-1" d="M112.58,102.8l-25.5,18.36,37.55,27.28a1.46,1.46,0,0,0,2.25-1.63Z"></path> <path class="cls-1" d="M80.19,72H75.74L73.84,82.2h4.45c3.64,0,5.91-1.75,6.54-5.08S83.83,72,80.19,72Z"></path> <path class="cls-1" d="M110,91.5l45.65-33.16a1.47,1.47,0,0,0-.87-2.65H98.34a1.46,1.46,0,0,1-1.39-1L79.51,1a1.47,1.47,0,0,0-2.79,0L59.29,54.68a1.47,1.47,0,0,1-1.4,1H1.47a1.46,1.46,0,0,0-.86,2.65L46.25,91.5a1.48,1.48,0,0,1,.54,1.64L29.35,146.81a1.46,1.46,0,0,0,2.26,1.63l45.64-33.16h0L110,91.51ZM97.37,77.12C95.53,87,87.79,93.49,78.07,93.49H71.73l-2,10.85a1.41,1.41,0,0,1-1.49,1.25H58.5c-.82,0-1.17-.44-1-1.25L65.39,62a1.4,1.4,0,0,1,1.49-1.25h17.3C94,60.76,99.21,67.28,97.37,77.12Z"></path> <path class="cls-1" d="M175.2,99.11h9.53c13.81,0,22.48-7.89,24.71-20.08,2.49-13.64-5.06-23-19.48-23H170.48a1.46,1.46,0,0,0-1.55,1.37l-10.3,58.36a1.27,1.27,0,0,0,1.29,1.64h10.64A1.54,1.54,0,0,0,172.2,116Zm5.41-30.72h7.46c5.75,0,8.67,3.26,7.64,9.53-.94,5.75-4.63,8.92-10.73,8.92h-7.63Z"></path> <path class="cls-1" d="M224.81,118.51a30.88,30.88,0,0,0,17.93-5.23,1.49,1.49,0,0,0,.52-2.06l-3.52-6.61c-.43-1-1.12-1-2-.43a22.37,22.37,0,0,1-11.16,3.43c-4.72,0-6.78-2.23-5.92-6.78l.25-1.2H244.8a1.44,1.44,0,0,0,1.55-1.29L247.81,90c2.31-12.62-5.5-18.46-16.48-18.46C220.94,71.56,212,76.8,210,88l-2.23,12.45C205.75,111.64,213.56,118.51,224.81,118.51Zm-1.89-29.78c.77-4,3.6-6.27,7.29-6.27,4.38,0,5.84,3,5.24,6.44L235,91.05H222.49Z"></path> <path class="cls-1" d="M258.71,117.4a1.51,1.51,0,0,0,1.54-1.38l5.58-31.67a14.74,14.74,0,0,1,5.58-1,28.88,28.88,0,0,1,5,.43,1.39,1.39,0,0,0,1.71-1.29l1.55-8.41a1.36,1.36,0,0,0-1.2-1.71,34.48,34.48,0,0,0-7.13-.78,38,38,0,0,0-15.88,3.61,2.27,2.27,0,0,0-1.28,1.63l-6.78,39a1.28,1.28,0,0,0,1.37,1.64Z"></path> <path class="cls-1" d="M298.27,89.59c-4.12-1-6.87-1.72-6.35-4.29.34-2.15,2.32-2.84,5.49-2.84a18.92,18.92,0,0,1,9.53,2.32,1.42,1.42,0,0,0,2.06-.43l5.06-6.78a1.26,1.26,0,0,0-.34-2.06,28.54,28.54,0,0,0-15.11-4c-10.38,0-17.59,3.7-19.39,12.36-1.89,9.27,4.8,14.34,13.22,16,3.43.78,6.43,1.46,5.83,4.12-.43,2-2.49,3.26-6.61,3.26a18.3,18.3,0,0,1-11.15-3.69,1.36,1.36,0,0,0-2.06.35l-4.9,6.69a1.36,1.36,0,0,0,.26,2.06c4.72,3.86,10.3,5.75,17.42,5.75,10.73,0,18.37-4.2,20.09-13.3C313.12,95.17,304.88,91.05,298.27,89.59Z"></path> <path class="cls-1" d="M330.71,118.51c12.62,0,20.43-6.18,22.4-17l2-10.82c1.8-10.47-5.07-19.14-16.83-19.14-11.92,0-20.34,6.44-22.22,16.83L314.23,99C312.26,109.93,319.21,118.51,330.71,118.51Zm-3.6-18.19,2-11.08a7.5,7.5,0,0,1,7.73-6.43c4.12,0,5.92,3.17,5.23,7l-2,11c-.69,4-3.44,6.44-7.9,6.44C328.14,107.27,326.34,104.52,327.11,100.32Z"></path> <path class="cls-1" d="M368.05,116l5.66-32.18a14.25,14.25,0,0,1,5.49-1c4.55,0,6.44,2.49,5.41,7.89l-4.29,25.06a1.35,1.35,0,0,0,1.37,1.64h9.87a1.53,1.53,0,0,0,1.63-1.38l4.29-24c2.15-12.19-3.69-20.43-16.65-20.43A51.55,51.55,0,0,0,363.41,75a2.11,2.11,0,0,0-1.29,1.54l-7,39.22a1.29,1.29,0,0,0,1.38,1.64h10A1.48,1.48,0,0,0,368.05,116Z"></path> <path class="cls-1" d="M594.81,76.67a9.71,9.71,0,0,0-3.5.72c-1.63.64-5.09,3.5-8.29,6.09a72.17,72.17,0,0,0,11.41-2C600.15,80.24,599,76.67,594.81,76.67Z"></path> <path class="cls-1" d="M605.19,73.64c-1.71-2.33-3.73-4.78-6.85-6a10.76,10.76,0,0,0,2.17-7.1c-.51-7.56-5.7-12.07-13.89-12.07l-1.21,0C576,48.94,568.8,53.09,558.87,61c0-.17,0-.33-.08-.5-.37-2-1.13-6.11-5.46-6.11a17.67,17.67,0,0,0-4,.7l-.34.09c-3.63.88-13.92,3.79-18.09,5l-.38.11c-5,1.46-6.82,2.54-6.54,8.26a16,16,0,0,0,.62,4.24c-1.4-1.88-3.08-3.33-5.38-3.33-2,0-3.56,1.14-5.18,2.35l-.61.45c-3.64,2.67-16.59,13.28-24.21,21.36-.17.19-.33.35-.47.49-2.78,2.85-2.19,4.55-.75,8.66l.36,1c.07.19.14.39.2.59a11.28,11.28,0,0,0,2.16,4.19c-8.58-.62-15.81-.79-21-.79-3.28,0-6.49.07-9.55.2,4.73-4.28,9.17-8.59,13.5-12.81,10-9.74,19.53-19,30.8-25.85l1.1,0c1,0,1.8,0,2.5,0,3.92,0,5.35-.65,9.28-3.17s6.66-4.39,9.8-6.7c2.27-1.66,5.38-3.94,4.7-7.2s-4.73-4.46-9.16-5.45l-.31-.07a35.19,35.19,0,0,0-7.59-1.18c-3.31,0-6.3,1-11,3.7-12.36,7-48,40.21-69.31,60.55l3.16-17.77c2.32-12.87-3.69-20.6-15.36-20.6-7,0-13.39,1.55-17.51,4-.52.34-.52.94-.26,1.72l2.66,7c.34,1,1,1.12,2,.69a25.84,25.84,0,0,1,10.22-2c5.4,0,6.61,2.31,5.83,6.52L425,91a38.17,38.17,0,0,0-7.29-.69c-11,0-18,3.69-19.49,12-1.71,9.35,4.38,16.22,16.4,16.22h.22c-3.47,3-2.75,5.57,0,9.62,2.22,3.28,3.83,5.65,7,5.65,1.79,0,3.46-.76,6.27-2.11a75.77,75.77,0,0,0,11.51-7,137.11,137.11,0,0,1,23.44-1.69c17.15,0,44.9,2.06,79.72,11.86l.64.18a12.87,12.87,0,0,0,3.51.71,3.88,3.88,0,0,0,3.35-1.73c1.35-2.11.33-4.58-1.44-8.43l-.22-.47c-3.06-6.68-3.84-7.28-11.88-9.24l-1.06-.26a271.52,271.52,0,0,0-38.6-6.39,11.8,11.8,0,0,0,2.25-1.91c3.66-3.84,21-17.37,25.13-20.46a12.12,12.12,0,0,0,3.31-3.35,12.66,12.66,0,0,0,2.91,2.74C526.91,90,523.17,94,519.58,98s-2.28,6.17.46,10.09c1.16,1.65,3,3.85,5.69,3.85a6.29,6.29,0,0,0,4.32-2.1c1.43-1.39,3-2.92,4.64-4.55,4.17-4.12,8.86-8.74,14-13.47,2.35.42,4.77.76,7,1l-.26.34c-3.25,4.44-2.17,8,.45,11.9,1.28,1.93,4,6,9.94,6a21,21,0,0,0,7.22-1.5c8.49-3.13,16.66-8.11,19-11.6,1-1.5,2-3,1.6-4.73a44,44,0,0,0,9.17-3c3.75-1.72,5.09-4.21,5.55-6C609.1,81.14,608.06,77.58,605.19,73.64ZM411,103c.43-2.58,2.66-4,6.87-4a27.8,27.8,0,0,1,5.49.6l-1.2,7.47a30.69,30.69,0,0,1-5.92.68C412.5,107.78,410.44,106.24,411,103Zm124,15.63c8.41,2.06,8.06,1.71,11,8.23,2.05,4.45,2.25,5.71,1,5.71a16.26,16.26,0,0,1-3.3-.77c-32.09-9-60.16-12-80.57-12a140.17,140.17,0,0,0-24.74,1.87,72,72,0,0,1-11.58,7.17c-2.39,1.15-3.8,1.8-4.9,1.8-1.53,0-2.42-1.28-4.44-4.27-2.54-3.74-2.35-4.23.23-6.11a25.33,25.33,0,0,1,3.93-2.22,55,55,0,0,0,10.87-2.53,1.86,1.86,0,0,0,1.21-1.38l1.15-.22c31-29.62,60.07-55.86,70.49-61.8,4.26-2.42,6.79-3.28,9.48-3.28A34.46,34.46,0,0,1,522,50c8.69,1.94,8.2,3.46,3.29,7-3.24,2.38-6.11,4.32-9.63,6.58s-4.43,2.67-7.59,2.67c-1.12,0-2.53,0-4.45-.08-19.27,11.52-33.06,29.36-52.58,45.58,5.28-.52,11.62-.81,18.68-.81A284.71,284.71,0,0,1,535,118.61ZM522.65,84.28c-3.5,2.6-21.51,16.59-25.53,20.82-1.28,1.35-2.24,1.87-3,1.87-1.57,0-2.16-2.36-2.78-4.15-1.92-5.53-1.88-4.82.18-7,7.52-8,20.46-18.54,23.78-21,1.66-1.22,2.8-2.2,3.93-2.2s2.28,1,3.94,3.66C526.19,81.17,526.15,81.68,522.65,84.28Zm4.49-15.83c-.19-3.9.23-3.9,4.66-5.21s14.54-4.15,18-5a17.89,17.89,0,0,1,3.57-.69c1.4,0,1.87.86,2.37,3.53.53,2.85.47,3.69-2.8,4.56-4.32,1.14-18.29,5.14-22,6.48a7.65,7.65,0,0,1-2.21.58C527.56,72.72,527.3,71.68,527.14,68.45Zm20.61,1.9c-1.87,1.62-3.71,3.25-5.5,4.87-2.2-.55-4.19-1.09-5.84-1.56C539.76,72.65,544.11,71.38,547.75,70.35Zm53.68,17c-7.15,3.27-15.52,4-22.36,4-1.65,0-3.22,0-4.66-.1a41.17,41.17,0,0,0-6.21,7.65c8.75-1.14,14.34-3.58,18.71-4.72a14.41,14.41,0,0,1,3-.58c1.11,0,.65.8-.52,2.53-1.75,2.6-9.09,7.32-17.48,10.41a18.1,18.1,0,0,1-6.14,1.31c-3.87,0-5.73-2.16-7.33-4.56-2.27-3.42-2.64-5.41-.52-8.3,1.14-1.56,2.39-3.11,3.69-4.65-3.18-.38-8.91-1-13.9-2-7.68,7.06-14.58,14.06-19.82,19.15a3.32,3.32,0,0,1-2.13,1.21c-.85,0-1.83-.68-3.11-2.51-2.63-3.74-2.64-4-.7-6.18,4.83-5.36,9.55-10.22,14.09-14.65-6-2.42-6.93-5.47-7.45-8.61-.23-1.43.09-2,.8-2a3.68,3.68,0,0,1,1.3.34c1.09.45,6.32,2,12.46,3.51,5.58-5.12,10.81-9.57,15.52-13.43,10.32-8.46,17.49-13.17,26.93-13.66l1,0c6.67,0,10.37,3.45,10.75,9.14a7.56,7.56,0,0,1-3.06,6.5,3.21,3.21,0,0,1-1.86.68,3.11,3.11,0,0,1-2.69-2.14,4.25,4.25,0,0,0-4.25-2.53c-2,0-4.71.82-8.16,2.69-7.24,3.91-14.65,9.47-21.7,15.45,3.18.59,9,1.22,13,1.66C574,78,580,73.84,585.87,71.59a21.93,21.93,0,0,1,7.72-1.74c4.49,0,6.78,2.52,9.06,5.65C606,80.05,607.11,84.77,601.43,87.37ZM587.28,67.78c-.81.25-1.66.54-2.54.88a58.14,58.14,0,0,0-17.17,11.07l-4.39-.5a111,111,0,0,1,15.66-10.57c3.54-1.9,5.58-2.31,6.67-2.31s1.25.37,1.39.68S587.15,67.54,587.28,67.78Z"></path> </g> </g> </svg> 