<?xml version="1.0" encoding="UTF-8"?> <svg xmlns="http://www.w3.org/2000/svg" xmlns:xlink="http://www.w3.org/1999/xlink" viewBox="0 0 615.63 164.73"> <defs> <style>.cls-1{fill:#fff;}.cls-2{fill:url(#Безымянный_градиент_7);}.cls-3{fill:url(#Безымянный_градиент_7-2);}.cls-4{fill:url(#Безымянный_градиент_7-3);}.cls-5{fill:url(#Безымянный_градиент_7-4);}.cls-6{fill:url(#Безымянный_градиент_7-5);}.cls-7{fill:url(#Безымянный_градиент_7-6);}.cls-8{fill:url(#Безымянный_градиент_7-7);}.cls-9{fill:url(#Безымянный_градиент_7-8);}.cls-10{fill:url(#Безымянный_градиент_7-9);}.cls-11{fill:url(#Безымянный_градиент_7-10);}.cls-12{fill:#7f8290;}.cls-13{fill:#e10b17;fill-rule:evenodd;}</style> <linearGradient id="Безымянный_градиент_7" x1="114.09" y1="133.55" x2="114.09" y2="25.15" gradientUnits="userSpaceOnUse"> <stop offset="0.15" stop-color="#5e6370"></stop> <stop offset="0.67" stop-color="#7e818e"></stop> </linearGradient> <linearGradient id="Безымянный_градиент_7-2" x1="86.47" y1="133.55" x2="86.47" y2="25.15" xlink:href="#Безымянный_градиент_7"></linearGradient> <linearGradient id="Безымянный_градиент_7-3" x1="85.19" y1="133.55" x2="85.19" y2="25.15" xlink:href="#Безымянный_градиент_7"></linearGradient> <linearGradient id="Безымянный_градиент_7-4" x1="191.33" y1="133.55" x2="191.33" y2="25.15" xlink:href="#Безымянный_градиент_7"></linearGradient> <linearGradient id="Безымянный_градиент_7-5" x1="234.89" y1="133.55" x2="234.89" y2="25.15" xlink:href="#Безымянный_градиент_7"></linearGradient> <linearGradient id="Безымянный_градиент_7-6" x1="270.59" y1="133.55" x2="270.59" y2="25.15" xlink:href="#Безымянный_градиент_7"></linearGradient> <linearGradient id="Безымянный_градиент_7-7" x1="300.89" y1="133.55" x2="300.89" y2="25.15" xlink:href="#Безымянный_градиент_7"></linearGradient> <linearGradient id="Безымянный_градиент_7-8" x1="341.71" y1="133.55" x2="341.71" y2="25.15" xlink:href="#Безымянный_градиент_7"></linearGradient> <linearGradient id="Безымянный_градиент_7-9" x1="383.55" y1="133.55" x2="383.55" y2="25.15" xlink:href="#Безымянный_градиент_7"></linearGradient> <linearGradient id="Безымянный_градиент_7-10" x1="425.12" y1="133.55" x2="425.12" y2="25.15" xlink:href="#Безымянный_градиент_7"></linearGradient> </defs> <title>Ресурс 12</title> <g id="Слой_2" data-name="Слой 2"> <g id="Слой_1-2" data-name="Слой 1"> <path class="cls-1" d="M132.56,162.87a8.53,8.53,0,0,1-5-1.64L90,134a7.07,7.07,0,0,1,0-11.45l25.5-18.37a7.08,7.08,0,0,1,10.86,3.56l14.3,44a8.55,8.55,0,0,1-8.12,11.18Zm-26.35-34.61,15.69,11.4-6-18.39Z"></path> <path class="cls-1" d="M85.37,96.34H80.91A7.07,7.07,0,0,1,74,88l1.9-10.15a7.08,7.08,0,0,1,7-5.78h4.45c5.1,0,7.95,2.15,9.45,4a11.05,11.05,0,0,1,2.13,9.49C97.59,92.18,92.43,96.34,85.37,96.34Z"></path> <path class="cls-1" d="M37.82,162.87a8.55,8.55,0,0,1-8.12-11.18L45.88,101.9,3.52,71.13a8.54,8.54,0,0,1,5-15.44H60.89L77.07,5.9a8.53,8.53,0,0,1,16.23,0l16.18,49.79h52.35a8.54,8.54,0,0,1,5,15.44l-124,90.1A8.52,8.52,0,0,1,37.82,162.87ZM57.45,112l-9,27.62,27.46-20-.64,0H65.57a8,8,0,0,1-6.31-2.87A7.84,7.84,0,0,1,57.45,112Zm27.22-4.41-.94,5.08a9.19,9.19,0,0,1-.5,1.69l11.83-8.59a27.2,27.2,0,0,1-9.92,1.82Zm24.4-37.8c2.6,4.3,3.42,9.76,2.32,15.66a28,28,0,0,1-5.76,12.64l39-28.3Zm-83.28,0,31.69,23a8.52,8.52,0,0,1,2.73,3.31l4.92-26.33H25.79ZM78.56,74.9l-3.7,19.79a7.09,7.09,0,0,1,3.94-1.2h6.34c6.3,0,11.14-4.16,12.35-10.6.51-2.73.21-4.93-.83-6.18-1.31-1.58-4-1.81-5.41-1.81Zm83.27-5.07h0ZM74.11,60.76H91.25a25.49,25.49,0,0,1,5.18.51L85.19,26.67Z"></path> <path class="cls-1" d="M177.63,131.53H167a8.35,8.35,0,0,1-6.46-3,8.48,8.48,0,0,1-1.78-7L169,63.42A8.48,8.48,0,0,1,177.55,56H197c11.63,0,18.12,4.86,21.52,8.93,4.76,5.72,6.51,13.67,4.92,22.41-2.93,16-15.06,25.88-31.67,25.88h-3.61l-2,11.08A8.61,8.61,0,0,1,177.63,131.53Zm-5-7.51v0Z"></path> <path class="cls-1" d="M231.88,132.65c-8.27,0-15.26-2.92-19.7-8.21-4-4.79-5.56-11.23-4.35-18.12l2.24-12.46c2.52-13.76,13.37-22.3,28.33-22.3,8.29,0,15.18,2.79,19.39,7.84,2.81,3.38,5.79,9.41,4,19l-1.45,8.27,0,.17a8.51,8.51,0,0,1-4.83,6.2l1,2a6.29,6.29,0,0,1,.32.7,8.5,8.5,0,0,1-3.27,10.65A38.13,38.13,0,0,1,231.88,132.65Zm8.49-18.05h0Zm13-9.19h0Zm-30.28-4.33-.11.6a3.45,3.45,0,0,1,.28-.26ZM242.52,96h0Z"></path> <path class="cls-1" d="M265.78,131.53h-10a8.32,8.32,0,0,1-8.33-10l6.77-38.91c0-.11,0-.21.07-.32a9.31,9.31,0,0,1,5-6.42l.18-.09a45.06,45.06,0,0,1,18.86-4.27,41.86,41.86,0,0,1,8.5.91,8.42,8.42,0,0,1,6.76,10l-1.49,8.1a8.44,8.44,0,0,1-3.41,5.71,8.81,8.81,0,0,1-5.93,1.54,5.59,5.59,0,0,1-.59-.08,21.54,21.54,0,0,0-3.22-.31l-4.73,26.85,0,.16A8.5,8.5,0,0,1,265.78,131.53ZM261.43,124l0,.08S261.42,124,261.43,124Zm16.7-35.08h0Zm1.63-9a.77.77,0,0,1,0,.15Z"></path> <path class="cls-1" d="M298.3,132.65c-8.67,0-15.81-2.39-21.85-7.31A8.39,8.39,0,0,1,275,113.52l4.84-6.62.12-.16a8.9,8.9,0,0,1,2.27-2.08,18.9,18.9,0,0,1-2.84-15.08c1.4-6.74,6.68-18,26.32-18a35.49,35.49,0,0,1,18.63,4.89A8.3,8.3,0,0,1,326.71,89l-4.9,6.57a8.73,8.73,0,0,1-1.15,1.33c4.14,4.31,5.86,10.07,4.68,16.65C323.05,125.7,313.2,132.65,298.3,132.65Zm-11.9-10.81-.07.1A.36.36,0,0,0,286.4,121.84Zm29.07-41.43a1.13,1.13,0,0,0-.1.13Z"></path> <path class="cls-1" d="M337.78,132.65c-7.66,0-14.3-2.91-18.71-8.19s-6.06-12.22-4.72-19.62l1.79-10.56c2.51-13.84,14-22.72,29.19-22.72,7.76,0,14.49,2.92,19,8.22A23.13,23.13,0,0,1,369.12,99l-2,10.89C364.53,124.13,353.56,132.65,337.78,132.65Zm11.33-35.74h0Z"></path> <path class="cls-1" d="M398.63,131.53h-9.87a8.35,8.35,0,0,1-6.25-2.71,8.7,8.7,0,0,1-1.31-1.9,8.45,8.45,0,0,1-7.72,4.61h-10a8.32,8.32,0,0,1-8.33-10l7-39.21c0-.15.07-.31.1-.46a9.17,9.17,0,0,1,5.28-6.29l.35-.15a58.44,58.44,0,0,1,19.94-3.9c10.38,0,16.14,4.27,19.14,7.84,4.41,5.25,6,12.48,4.47,20.89l-4.29,24A8.6,8.6,0,0,1,398.63,131.53Zm-29.51-7.47v0Z"></path> <path class="cls-1" d="M421.72,132.65c-8.3,0-15.19-2.78-19.39-7.82-3.72-4.46-5.12-10.41-4-16.75a19.71,19.71,0,0,1,9.38-13.87c-.05-.12-.1-.24-.14-.37l-2.63-7a2,2,0,0,1-.1-.26,8.29,8.29,0,0,1,3.05-9.84l.26-.16c5.31-3.21,13-5.06,21.17-5.06,9.65,0,15.09,4.09,18,7.53,3.08,3.68,6.34,10.38,4.36,21.39l-3.86,21.7-.06.3a9,9,0,0,1-5.95,6.8A62.46,62.46,0,0,1,421.72,132.65ZM440.86,121h0Zm-3.63-5-.12,0Zm-8-1.75h0Zm7.45-10.77.06.11,0-.2ZM420.83,88.82l0,.1Z"></path> <path class="cls-2" d="M119.65,109.87l-25.5,18.36,37.55,27.28a1.46,1.46,0,0,0,2.25-1.64Z"></path> <path class="cls-3" d="M87.26,79.11H82.81l-1.9,10.16h4.45c3.64,0,5.91-1.75,6.54-5.08S90.9,79.11,87.26,79.11Z"></path> <path class="cls-4" d="M161.83,62.76H105.41a1.46,1.46,0,0,1-1.39-1L86.58,8.08a1.47,1.47,0,0,0-2.79,0L66.36,61.74a1.47,1.47,0,0,1-1.4,1H8.54a1.46,1.46,0,0,0-.86,2.65L53.32,98.57a1.48,1.48,0,0,1,.54,1.64L36.42,153.87a1.47,1.47,0,0,0,2.26,1.64l45.64-33.16h0l32.72-23.78h0L162.7,65.41A1.47,1.47,0,0,0,161.83,62.76ZM104.44,84.19c-1.84,9.85-9.58,16.37-19.3,16.37H78.8l-2,10.85a1.41,1.41,0,0,1-1.49,1.25H65.57c-.82,0-1.17-.44-1-1.25l7.91-42.33A1.4,1.4,0,0,1,74,67.83h17.3C101,67.83,106.28,74.35,104.44,84.19Z"></path> <path class="cls-5" d="M197,63.1H177.55A1.45,1.45,0,0,0,176,64.47l-10.3,58.36a1.26,1.26,0,0,0,1.29,1.63h10.64a1.54,1.54,0,0,0,1.64-1.37l3-16.91h9.53c13.81,0,22.48-7.89,24.71-20.08C219,72.45,211.45,63.1,197,63.1ZM202.78,85c-.94,5.75-4.63,8.93-10.73,8.93h-7.63l3.26-18.45h7.46C200.89,75.46,203.81,78.72,202.78,85Z"></path> <path class="cls-6" d="M238.4,78.63c-10.39,0-19.31,5.24-21.37,16.48l-2.23,12.45c-2,11.15,5.83,18,17.08,18a30.81,30.81,0,0,0,17.93-5.24c.78-.42.86-1.2.52-2.06l-3.52-6.6c-.43-1-1.12-1-2-.43a22.37,22.37,0,0,1-11.16,3.43c-4.72,0-6.78-2.23-5.92-6.78l.25-1.2h23.86a1.44,1.44,0,0,0,1.55-1.29l1.46-8.32C257.19,84.47,249.38,78.63,238.4,78.63ZM242.52,96l-.43,2.15H229.56L230,95.8c.77-4,3.6-6.27,7.29-6.27C241.66,89.53,243.12,92.54,242.52,96Z"></path> <path class="cls-7" d="M285.17,89.53l1.55-8.41a1.36,1.36,0,0,0-1.2-1.71,34.48,34.48,0,0,0-7.13-.78,38,38,0,0,0-15.88,3.61,2.27,2.27,0,0,0-1.28,1.63l-6.78,39a1.27,1.27,0,0,0,1.37,1.63h10a1.5,1.5,0,0,0,1.54-1.37l5.58-31.67a14.74,14.74,0,0,1,5.58-1,28.88,28.88,0,0,1,5,.43A1.39,1.39,0,0,0,285.17,89.53Z"></path> <path class="cls-8" d="M305.34,96.66c-4.12-1-6.87-1.72-6.35-4.29.34-2.15,2.32-2.84,5.49-2.84A18.92,18.92,0,0,1,314,91.85a1.42,1.42,0,0,0,2.06-.43l5.06-6.78a1.26,1.26,0,0,0-.34-2.06,28.54,28.54,0,0,0-15.11-4c-10.38,0-17.59,3.69-19.39,12.36-1.89,9.27,4.8,14.34,13.21,16.05,3.44.77,6.44,1.46,5.84,4.12-.43,2-2.49,3.26-6.61,3.26a18.3,18.3,0,0,1-11.15-3.69,1.36,1.36,0,0,0-2.06.35l-4.9,6.69a1.36,1.36,0,0,0,.26,2.06c4.72,3.86,10.3,5.75,17.42,5.75,10.73,0,18.37-4.21,20.09-13.3C320.19,102.24,312,98.12,305.34,96.66Z"></path> <path class="cls-9" d="M345.33,78.63c-11.92,0-20.34,6.44-22.22,16.83L321.3,106.1c-2,10.9,5,19.48,16.48,19.48,12.62,0,20.43-6.18,22.4-17l2-10.82C364,87.3,357.09,78.63,345.33,78.63Zm3.78,18.28-2,11c-.69,4-3.44,6.44-7.9,6.44-4,0-5.83-2.75-5.06-7l2-11.07a7.5,7.5,0,0,1,7.73-6.43C348,89.88,349.8,93.05,349.11,96.91Z"></path> <path class="cls-10" d="M387.9,78.63a51.55,51.55,0,0,0-17.42,3.44,2.09,2.09,0,0,0-1.29,1.54l-7,39.22a1.28,1.28,0,0,0,1.38,1.63h10a1.47,1.47,0,0,0,1.63-1.37l5.67-32.18a14.25,14.25,0,0,1,5.49-1c4.55,0,6.44,2.49,5.41,7.89l-4.29,25.06a1.34,1.34,0,0,0,1.37,1.63h9.87a1.53,1.53,0,0,0,1.63-1.37l4.29-24C406.7,86.87,400.86,78.63,387.9,78.63Z"></path> <path class="cls-11" d="M429.36,78.63c-7,0-13.39,1.55-17.51,4-.52.34-.52.94-.26,1.71l2.66,7c.34,1,1,1.12,2,.69a25.83,25.83,0,0,1,10.22-2c5.4,0,6.61,2.32,5.83,6.53L432.1,98a38.17,38.17,0,0,0-7.29-.69c-11,0-18,3.69-19.49,12-1.71,9.35,4.38,16.22,16.4,16.22a55.58,55.58,0,0,0,17.85-3,2,2,0,0,0,1.29-1.63l3.86-21.72C447,86.36,441,78.63,429.36,78.63Zm-.09,35.53a29.89,29.89,0,0,1-5.92.69c-3.78,0-5.84-1.54-5.24-4.8.43-2.58,2.66-4,6.87-4a27.8,27.8,0,0,1,5.49.6Z"></path> <path class="cls-12" d="M173.29,144.55h-1.66l.87-5.07c.06-.26-.05-.42-.33-.42h-2.39a.43.43,0,0,0-.42.36l-.9,5.13h-1.62a6.46,6.46,0,0,0-6.6,5.62l-.59,3.06a4.66,4.66,0,0,0,4.69,5.89h1.51L165,164a.31.31,0,0,0,.34.42h2.39a.42.42,0,0,0,.44-.37l.87-5h1.41c3.56,0,6.23-1.63,6.93-5.45l.59-3.14C178.62,146.94,176.6,144.55,173.29,144.55Zm-6.93,11.71H165c-1.79,0-2.49-.87-2.1-2.92l.53-3c.37-2,1.52-3,3.23-3H168Zm8.39-5.87-.53,3a3.17,3.17,0,0,1-3.43,2.92h-1.26l1.6-8.9h1.6C174.5,147.36,175.14,148.23,174.75,150.39Z"></path> <path class="cls-12" d="M192.76,144.55H190a.69.69,0,0,0-.51.26l-4.18,5.67c-.92,1.26-1.93,2.75-2.63,3.87l-.06,0c.31-1.26.59-2.55.81-3.73l1-5.59a.34.34,0,0,0-.33-.45H181.7a.46.46,0,0,0-.42.37l-2.41,13.78a.32.32,0,0,0,.34.42h2.72a.56.56,0,0,0,.47-.25l3.93-5.25c1.21-1.57,2.08-2.89,2.89-4.13h.06c-.25,1.21-.56,2.47-.84,3.9l-1,5.31a.35.35,0,0,0,.37.42h2.41a.42.42,0,0,0,.42-.37L193.12,145A.37.37,0,0,0,192.76,144.55Z"></path> <path class="cls-12" d="M205.63,147l.4-2a.37.37,0,0,0-.37-.45H195.11a.41.41,0,0,0-.42.37l-.36,2.05c-.06.25.08.42.36.42h3.62l-2.07,11.31a.31.31,0,0,0,.33.42H199a.37.37,0,0,0,.42-.37l2.11-11.36h3.67A.38.38,0,0,0,205.63,147Z"></path> <path class="cls-12" d="M218.82,144.55h-2.41a.43.43,0,0,0-.45.37l-1,5.28h-5.13l.95-5.2c.06-.25,0-.45-.33-.45h-2.44a.42.42,0,0,0-.43.37L205.1,158.7a.32.32,0,0,0,.34.42h2.44a.37.37,0,0,0,.42-.37l1.06-5.72h5.11l-1,5.67a.32.32,0,0,0,.34.42h2.44a.41.41,0,0,0,.45-.37L219.19,145A.35.35,0,0,0,218.82,144.55Z"></path> <path class="cls-12" d="M227.46,144.22c-3,0-6,1.57-6.74,5.33l-.78,4.35c-.67,3.62,2,5.55,5.19,5.55a10,10,0,0,0,6-1.88c.22-.14.22-.33.11-.56l-1-1.65a.34.34,0,0,0-.54-.11,7.55,7.55,0,0,1-4.12,1.4c-1.82,0-2.81-.87-2.41-2.67l.14-.75h8.44a.39.39,0,0,0,.42-.37l.51-2.83C233.41,146.07,230.91,144.22,227.46,144.22Zm2.13,5.53-.17.95h-5.66l.19-.95a3.15,3.15,0,0,1,3.23-2.73C228.86,147,230,147.87,229.59,149.75Z"></path> <path class="cls-12" d="M241.23,144.22a6.53,6.53,0,0,0-6.76,5.41l-.62,3.54c-.67,3.87,1.43,6.28,5.11,6.28a9.33,9.33,0,0,0,5-1.37.41.41,0,0,0,.14-.56l-1-1.83a.37.37,0,0,0-.56-.14,6.11,6.11,0,0,1-3.31,1.07c-1.63,0-2.61-1.09-2.22-3.23l.62-3.53a3.23,3.23,0,0,1,3.37-2.81,5,5,0,0,1,2.72.82.39.39,0,0,0,.56-.06l1.26-1.63a.35.35,0,0,0-.06-.56A7.2,7.2,0,0,0,241.23,144.22Z"></path> <path class="cls-12" d="M282,144.55h-9.18a.47.47,0,0,0-.45.37c-1.88,9.09-3,11-4.66,11.2a.41.41,0,0,0-.39.39l-.36,2.07-4.15-7.6,6.17-5.92c.22-.25.11-.51-.2-.51h-2.94a.75.75,0,0,0-.48.2l-5.5,5.39.93-5.14a.37.37,0,0,0-.37-.45H258a.41.41,0,0,0-.42.37l-2.44,13.78a.34.34,0,0,0,.36.42h2.45a.39.39,0,0,0,.42-.37l.78-4.37,1.35-1.29,3,5.75a.43.43,0,0,0,.45.28h2.75A.35.35,0,0,0,267,159a.3.3,0,0,0,.3.16c4.07-.16,5.67-2.61,7.69-11.78h3.68l-2.05,11.31c-.06.25.05.42.34.42h2.44a.41.41,0,0,0,.45-.37L282.33,145A.34.34,0,0,0,282,144.55Z"></path> <path class="cls-12" d="M253.52,149.21h-6.85a.41.41,0,0,0-.42.37l-.39,2.27c-.06.25,0,.42.34.42H253a.38.38,0,0,0,.42-.36l.4-2.28A.31.31,0,0,0,253.52,149.21Z"></path> <path class="cls-12" d="M296.47,144.55H294a.43.43,0,0,0-.42.37l-1.82,10.27a5,5,0,0,1-2.64.7c-1.52,0-2.72-.7-2.3-2.92l1.4-8a.33.33,0,0,0-.34-.45h-2.44a.46.46,0,0,0-.42.37l-1.4,7.77c-.65,3.71,1.57,6,4.88,6a9.3,9.3,0,0,0,2.75-.48c-.36,2.5-1.49,3.65-3.62,3.65a5.19,5.19,0,0,1-3.37-1.18.37.37,0,0,0-.58.06l-1.35,1.62a.37.37,0,0,0,0,.56,6.94,6.94,0,0,0,5.13,1.8c4.1,0,6.23-2.08,7-6.48L296.83,145A.37.37,0,0,0,296.47,144.55Z"></path> <path class="cls-12" d="M310.86,138.16c-.11-.23-.28-.28-.53-.17a18.47,18.47,0,0,1-4.3,1.12c-2.72.42-5.83,2.11-6.5,5.89l-1.46,8.53c-.7,4,2,5.92,5.16,5.92,3,0,6.17-1.57,6.85-5.44l.47-2.78c.62-3.56-1.48-5.89-4.65-5.89a6.33,6.33,0,0,0-3.29.76l.14-.79c.37-2.21,2.3-3,4.1-3.31a20.43,20.43,0,0,0,4.6-1.37.44.44,0,0,0,.2-.56Zm-5.86,10c1.93,0,2.61.89,2.27,2.89l-.45,2.8a3.23,3.23,0,0,1-3.42,2.69c-1.27,0-2.53-.58-2.16-2.49l.87-5A5.39,5.39,0,0,1,305,148.18Z"></path> <path class="cls-12" d="M409.67,144.55h-2.76a.69.69,0,0,0-.5.26l-4.18,5.67c-.93,1.26-1.94,2.75-2.64,3.87l-.06,0c.31-1.26.59-2.55.82-3.73l1-5.59a.34.34,0,0,0-.34-.45h-2.38a.45.45,0,0,0-.42.37l-2.41,13.78a.31.31,0,0,0,.33.42h2.72a.57.57,0,0,0,.48-.25l3.93-5.25c1.21-1.57,2.08-2.89,2.89-4.13h.06c-.26,1.21-.57,2.47-.85,3.9l-.95,5.31a.34.34,0,0,0,.36.42h2.42a.43.43,0,0,0,.42-.37L410,145A.37.37,0,0,0,409.67,144.55Z"></path> <path class="cls-12" d="M330.75,144.55H328a.69.69,0,0,0-.5.26l-4.18,5.67c-.93,1.26-1.94,2.75-2.64,3.87l-.06,0c.31-1.26.59-2.55.81-3.73l1-5.59a.34.34,0,0,0-.34-.45H319.7a.46.46,0,0,0-.43.37l-2.41,13.78a.32.32,0,0,0,.34.42h2.72a.58.58,0,0,0,.48-.25l3.92-5.25c1.21-1.57,2.08-2.89,2.9-4.13h0c-.25,1.21-.56,2.47-.84,3.9l-.95,5.31a.34.34,0,0,0,.36.42h2.41a.41.41,0,0,0,.42-.37L331.11,145A.37.37,0,0,0,330.75,144.55Z"></path> <path class="cls-12" d="M346.4,142a20.13,20.13,0,0,0,4.6-1.37.43.43,0,0,0,.2-.56l-.78-1.91a.36.36,0,0,0-.54-.17,18.53,18.53,0,0,1-4.29,1.12c-2.72.42-5.84,2.11-6.51,5.89l-1.46,8.53c-.7,4,2.05,5.92,5.16,5.92s6.18-1.57,6.85-5.44l.48-2.78c.61-3.56-1.49-5.89-4.66-5.89a6.36,6.36,0,0,0-3.29.76l.15-.79C342.67,143.1,344.61,142.31,346.4,142Zm-1.85,6.18c1.94,0,2.61.89,2.27,2.89l-.45,2.8a3.22,3.22,0,0,1-3.42,2.69c-1.26,0-2.52-.58-2.16-2.49l.87-5A5.39,5.39,0,0,1,344.55,148.18Z"></path> <path class="cls-12" d="M358.77,149.3h-2.72l.76-4.3a.35.35,0,0,0-.36-.45H354a.41.41,0,0,0-.42.37l-2.44,13.78a.34.34,0,0,0,.37.42h5.67c3.33,0,5.58-1.29,6.17-4.66C363.88,151.35,362,149.3,358.77,149.3Zm1.35,4.91c-.31,1.43-1.35,2.16-3.14,2.16h-2.19l.79-4.32h2.32C359.78,152.05,360.43,152.69,360.12,154.21Z"></path> <path class="cls-12" d="M378.5,144.22c-3.6,0-6.34,2.19-6.91,5.33l-.11.56h-2.3l.9-5.11a.36.36,0,0,0-.37-.45h-2.44a.43.43,0,0,0-.42.37l-2.44,13.78a.34.34,0,0,0,.36.42h2.45a.39.39,0,0,0,.42-.37l1-5.72H371l-.06.48a4.88,4.88,0,0,0,5.08,5.94c3.7,0,6.31-2,7-5.38l.67-3.82A4.91,4.91,0,0,0,378.5,144.22Zm1.88,5.81-.71,3.84a3.11,3.11,0,0,1-3.36,2.72c-1.74,0-2.47-1.18-2.13-2.94l.64-3.85a3.26,3.26,0,0,1,3.31-2.75C379.93,147.05,380.63,148.46,380.38,150Z"></path> <path class="cls-12" d="M396.25,147l.4-2a.38.38,0,0,0-.37-.45H385.73a.41.41,0,0,0-.42.37L385,147c-.06.25.08.42.36.42h3.62l-2.08,11.31a.32.32,0,0,0,.34.42h2.44c.26,0,.4-.11.42-.37l2.11-11.36h3.67A.38.38,0,0,0,396.25,147Z"></path> <path class="cls-12" d="M429.5,144.55H427a.42.42,0,0,0-.42.37l-1.83,10.27a5,5,0,0,1-2.63.7c-1.52,0-2.73-.7-2.3-2.92l1.4-8c.05-.25-.06-.45-.34-.45h-2.44a.45.45,0,0,0-.42.37l-1.4,7.77c-.65,3.71,1.57,6,4.88,6a9.3,9.3,0,0,0,2.75-.48c-.37,2.5-1.49,3.65-3.62,3.65a5.17,5.17,0,0,1-3.37-1.18.38.38,0,0,0-.59.06l-1.35,1.62a.39.39,0,0,0,0,.56,7,7,0,0,0,5.14,1.8c4.1,0,6.23-2.08,7-6.48L429.86,145A.37.37,0,0,0,429.5,144.55Z"></path> <path class="cls-12" d="M440.07,155.69a.36.36,0,0,0-.56-.14,6.06,6.06,0,0,1-3.31,1.07c-1.63,0-2.61-1.09-2.22-3.23l.62-3.53a3.23,3.23,0,0,1,3.37-2.81,5,5,0,0,1,2.72.82.39.39,0,0,0,.56-.06l1.26-1.63a.36.36,0,0,0-.05-.56,7.24,7.24,0,0,0-4.32-1.4,6.54,6.54,0,0,0-6.77,5.41l-.61,3.54c-.68,3.87,1.43,6.28,5.1,6.28a9.39,9.39,0,0,0,5-1.37.42.42,0,0,0,.14-.56Z"></path> <path class="cls-12" d="M456.23,144.55h-9.17a.45.45,0,0,0-.45.37c-1.88,9.09-3,11-4.66,11.2a.4.4,0,0,0-.39.39l-.4,2.22c0,.28.09.44.37.44,4.07-.16,5.67-2.61,7.69-11.78h3.67l-2.05,11.31a.31.31,0,0,0,.34.42h2.44a.41.41,0,0,0,.45-.37L456.6,145A.35.35,0,0,0,456.23,144.55Z"></path> <path class="cls-12" d="M470.74,144.55h-2.48a.43.43,0,0,0-.42.37L466,155.19a5,5,0,0,1-2.64.7c-1.51,0-2.72-.7-2.3-2.92l1.41-8c.05-.25-.06-.45-.34-.45h-2.44a.44.44,0,0,0-.42.37l-1.41,7.77c-.64,3.71,1.57,6,4.89,6a9.23,9.23,0,0,0,2.74-.48c-.36,2.5-1.48,3.65-3.61,3.65a5.15,5.15,0,0,1-3.37-1.18.38.38,0,0,0-.59.06l-1.35,1.62a.37.37,0,0,0,0,.56,7,7,0,0,0,5.14,1.8c4.09,0,6.23-2.08,7-6.48L471.1,145A.37.37,0,0,0,470.74,144.55Z"></path> <path class="cls-12" d="M482.49,147.05l.36-2.05a.34.34,0,0,0-.36-.45h-8.08a.4.4,0,0,0-.42.37l-2.47,13.78c-.06.25.08.42.36.42h2.47a.4.4,0,0,0,.42-.37l2-11.33h5.28A.41.41,0,0,0,482.49,147.05Z"></path> <path class="cls-12" d="M495.87,144.55h-2.75a.67.67,0,0,0-.5.26l-4.19,5.67c-.92,1.26-1.93,2.75-2.63,3.87l-.06,0c.31-1.26.59-2.55.81-3.73l1-5.59a.34.34,0,0,0-.34-.45h-2.39a.46.46,0,0,0-.42.37L482,158.7a.32.32,0,0,0,.34.42H485a.59.59,0,0,0,.48-.25l3.92-5.25c1.21-1.57,2.08-2.89,2.89-4.13h.06c-.25,1.21-.56,2.47-.84,3.9l-.95,5.31a.34.34,0,0,0,.36.42h2.41a.41.41,0,0,0,.42-.37L496.23,145A.37.37,0,0,0,495.87,144.55Z"></path> <path class="cls-13" d="M554.07,141.19a12.21,12.21,0,0,1-3.08-.65l-.64-.18c-35-9.86-62.9-11.92-80.15-11.92a138.24,138.24,0,0,0-24.09,1.77,72.72,72.72,0,0,1-11.55,7.11c-2.59,1.25-4.13,2-5.58,2-2.38,0-3.57-1.76-5.74-5-2.75-4.06-3-5.63.61-8.26,3-2.17,9.64-5.11,17.34-6.54,21.11-20.14,58-54.58,70.46-61.7,4.46-2.55,7.24-3.5,10.25-3.5a34,34,0,0,1,7.24,1.14l.32.07c4.7,1.06,7.51,2.08,8,4.24s-1.59,3.79-4.09,5.62c-3.1,2.27-5.91,4.19-9.72,6.63s-4.88,2.92-8.43,2.92c-.69,0-1.5,0-2.46,0l-1.57,0c-11.59,7-21.25,16.38-31.46,26.31-5.33,5.18-10.82,10.5-16.81,15.73,4.3-.28,9-.43,13.95-.43a286.56,286.56,0,0,1,65.62,7.67l1.06.27c7.57,1.84,8,2.15,10.82,8.36l.22.48c1.84,4,2.36,5.66,1.54,6.92A2.25,2.25,0,0,1,554.07,141.19Z"></path> <path class="cls-1" d="M521.9,55.9a34.46,34.46,0,0,1,7.21,1.17c8.69,1.94,8.2,3.46,3.29,7.05-3.24,2.38-6.11,4.32-9.63,6.58s-4.43,2.67-7.59,2.67c-1.12,0-2.53-.05-4.45-.08-19.27,11.52-33.06,29.36-52.58,45.57,5.28-.51,11.62-.81,18.68-.81a284.76,284.76,0,0,1,65.24,7.63c8.41,2.06,8.06,1.71,11,8.23,2,4.45,2.25,5.71,1,5.71a17,17,0,0,1-3.3-.77c-32.09-9-60.16-12-80.57-12a140.17,140.17,0,0,0-24.74,1.87,72,72,0,0,1-11.58,7.17c-2.39,1.15-3.8,1.8-4.9,1.8-1.53,0-2.42-1.29-4.44-4.27-2.54-3.74-2.35-4.23.23-6.11s9.17-4.94,17.16-6.35c31-29.62,60.07-55.86,70.49-61.8,4.26-2.42,6.79-3.28,9.48-3.28m0-3.15v0c-3.31,0-6.3,1-11,3.7-12.57,7.17-49.22,41.38-70.43,61.61-7.74,1.51-14.45,4.5-17.51,6.73-4.59,3.33-4,6-1,10.41,2.22,3.28,3.83,5.65,7,5.65,1.79,0,3.46-.76,6.27-2.11a76.27,76.27,0,0,0,11.51-7A137.11,137.11,0,0,1,470.2,130c17.15,0,44.9,2.06,79.72,11.86l.64.18a13.26,13.26,0,0,0,3.51.71,3.88,3.88,0,0,0,3.35-1.73c1.35-2.11.33-4.58-1.44-8.43l-.22-.48c-3.06-6.67-3.84-7.28-11.88-9.23l-1.06-.26a288.13,288.13,0,0,0-66-7.72c-3.28,0-6.49.07-9.55.19,4.73-4.27,9.17-8.58,13.5-12.8,10-9.74,19.52-19,30.8-25.85l1.1,0c1,0,1.8,0,2.5,0,3.92,0,5.35-.64,9.28-3.16s6.66-4.39,9.8-6.7c2.27-1.66,5.38-3.94,4.7-7.2S534.23,55,529.8,54l-.32-.07a35,35,0,0,0-7.58-1.18Z"></path> <path class="cls-13" d="M535.73,81.36c-2.81,0-3-3.06-3.09-5.77-.23-4.8,1-5.39,5.41-6.67l.38-.11c4.26-1.26,14.56-4.16,18-5l.34-.08a16.53,16.53,0,0,1,3.61-.66c3,0,3.54,2.79,3.92,4.82.65,3.51.23,5.26-3.94,6.36s-18.18,5.11-21.91,6.44a8.56,8.56,0,0,1-2.74.68Z"></path> <path class="cls-1" d="M560.4,64.63c1.4,0,1.87.87,2.37,3.54.53,2.85.47,3.69-2.8,4.56-4.32,1.14-18.29,5.14-22,6.47a7.74,7.74,0,0,1-2.21.59c-1.1,0-1.36-1-1.52-4.27-.19-3.9.23-3.91,4.66-5.21s14.54-4.15,18-5a18.09,18.09,0,0,1,3.57-.7m0-3.14a17.67,17.67,0,0,0-4,.7l-.34.08c-3.63.89-13.92,3.8-18.09,5l-.38.11c-5,1.45-6.82,2.54-6.54,8.26.14,2.72.36,7.26,4.66,7.26a9.78,9.78,0,0,0,3.27-.77c3.62-1.29,17.63-5.29,21.78-6.4,5.24-1.39,5.83-4.15,5.08-8.16-.37-2-1.13-6.11-5.46-6.11Z"></path> <path class="cls-13" d="M501.2,115.61c-2.52,0-3.41-2.65-4.06-4.59l-.56-1.66c-1.42-4-1.72-4.88.38-7l.49-.51a236.05,236.05,0,0,1,24-21.17l.62-.46c1.53-1.14,2.73-2,4.24-2,2.24,0,3.86,2.11,5.27,4.4,3.22,5.2,3.52,6.75-.92,10.06-3.72,2.77-21.43,16.54-25.33,20.64-1.53,1.61-2.85,2.36-4.13,2.36Z"></path> <path class="cls-1" d="M526.31,79.72c1.14,0,2.28,1,3.94,3.66,3,4.86,3,5.37-.53,8s-21.51,16.59-25.53,20.82c-1.28,1.35-2.25,1.87-3,1.87-1.57,0-2.16-2.36-2.78-4.15-1.92-5.53-1.88-4.82.18-7,7.52-8,20.46-18.55,23.78-21,1.66-1.22,2.8-2.2,3.93-2.2m0-3.14c-2,0-3.56,1.14-5.18,2.35l-.61.45c-3.64,2.67-16.59,13.28-24.21,21.36l-.47.49c-2.78,2.85-2.19,4.55-.75,8.65l.36,1c.07.19.14.39.2.59.66,2,1.89,5.68,5.55,5.68,2.29,0,4.1-1.63,5.27-2.86,3.66-3.84,21-17.37,25.13-20.46,5.5-4.1,4.68-6.71,1.32-12.14-1.66-2.68-3.6-5.15-6.61-5.15Z"></path> <path class="cls-13" d="M532.8,117.39c-1.92,0-3.36-1.7-4.4-3.18-2.69-3.84-3.34-5.08-.58-8.14,4-4.44,8.21-8.84,12.53-13.12-4.82-2.56-5.76-5.75-6.27-8.83a3.62,3.62,0,0,1,.52-3,2.35,2.35,0,0,1,1.83-.81,5,5,0,0,1,1.9.46c.86.35,5.47,1.75,11.42,3.23,4.7-4.29,9.6-8.52,15-12.92,10.86-8.9,18.15-13.51,27.85-14l1.13,0c7.27,0,11.87,4,12.32,10.6a9.15,9.15,0,0,1-3.61,7.81c4.18.6,6.54,3.36,8.59,6.17,2.58,3.53,3.54,6.65,2.85,9.27-.55,2.12-2.13,3.79-4.69,5a44,44,0,0,1-11.51,3.33,1.92,1.92,0,0,1,1.29,1c.64,1.2-.13,2.35-1.19,3.94-2.15,3.19-10.17,8-18.25,11a19.68,19.68,0,0,1-6.68,1.4c-4.51,0-6.82-2.53-8.64-5.26-2.37-3.57-3.22-6.37-.48-10.1.6-.81,1.24-1.65,1.92-2.5-3-.34-6.82-.83-10.38-1.5-5.33,4.93-10.22,9.74-14.55,14-1.66,1.64-3.22,3.18-4.65,4.57A4.69,4.69,0,0,1,532.8,117.39Zm49.32-17.45c-1.36,1.41-2.53,2.73-3.47,3.92A84.35,84.35,0,0,0,589.46,101c1.46-.46,2.85-.91,4.13-1.24l.33-.09c-2.44.24-5,.35-7.78.35C584.73,100,583.38,100,582.12,99.94ZM566.39,87.4c2.78.38,6.11.75,8.76,1h0c5.8-5.25,11.73-9.14,17.21-11.24a30.43,30.43,0,0,1,4.8-1.46,5.75,5.75,0,0,1-1.77-2.28,2.67,2.67,0,0,0-2.82-1.61c-1.82,0-4.39.87-7.41,2.5A120.22,120.22,0,0,0,566.39,87.4Zm35.49-2.09a8.17,8.17,0,0,0-2.92.61,19.69,19.69,0,0,0-3.49,2.34c1.68-.31,3.34-.68,5-1.05l.71-.16c2-.45,2.62-1.13,2.67-1.28A3.54,3.54,0,0,0,601.88,85.31Z"></path> <path class="cls-1" d="M593.69,58.63c6.67,0,10.37,3.45,10.75,9.13a7.57,7.57,0,0,1-3.06,6.51,3.21,3.21,0,0,1-1.86.68,3.11,3.11,0,0,1-2.69-2.14,4.25,4.25,0,0,0-4.25-2.53c-2,0-4.71.82-8.16,2.69-7.24,3.91-14.65,9.47-21.7,15.45,3.18.59,9,1.22,13,1.66,5.41-5,11.41-9.18,17.24-11.42a21.93,21.93,0,0,1,7.72-1.74c4.49,0,6.78,2.52,9.06,5.65,3.32,4.55,4.46,9.26-1.22,11.87-7.15,3.27-15.52,4-22.36,4-1.65,0-3.22,0-4.66-.1a41.17,41.17,0,0,0-6.21,7.65c8.75-1.14,14.34-3.58,18.71-4.72a14.41,14.41,0,0,1,3-.58c1.11,0,.65.8-.52,2.53-1.75,2.6-9.09,7.32-17.48,10.41a18.1,18.1,0,0,1-6.14,1.31c-3.87,0-5.73-2.16-7.33-4.56-2.27-3.42-2.64-5.41-.52-8.3,1.14-1.56,2.39-3.11,3.69-4.65-3.18-.38-8.91-1-13.9-2-7.68,7.05-14.58,14.05-19.82,19.15a3.32,3.32,0,0,1-2.13,1.21c-.85,0-1.83-.68-3.11-2.51-2.63-3.75-2.64-4-.7-6.18,4.83-5.36,9.55-10.22,14.09-14.65-6-2.42-6.93-5.47-7.45-8.61-.23-1.43.09-2,.8-2a3.68,3.68,0,0,1,1.3.34c1.09.45,6.32,2,12.46,3.51,5.58-5.12,10.81-9.57,15.52-13.43C576,63.86,583.2,59.14,592.64,58.66l1.05,0m-3.6,31.92a72.17,72.17,0,0,0,11.41-2c5.72-1.27,4.52-4.84.38-4.84a9.71,9.71,0,0,0-3.5.72c-1.63.64-5.09,3.5-8.29,6.09m3.6-35.06-1.21,0c-10.14.52-17.64,5.25-28.76,14.37-5.15,4.22-9.88,8.29-14.4,12.4-5.42-1.37-9.63-2.64-10.39-3a6.36,6.36,0,0,0-2.5-.58,3.93,3.93,0,0,0-3,1.36,5.23,5.23,0,0,0-.87,4.26c.49,2.93,1.38,6.17,5.29,8.88-3.84,3.85-7.58,7.79-11.17,11.76s-2.28,6.17.46,10.09c1.16,1.65,3,3.85,5.69,3.85a6.29,6.29,0,0,0,4.32-2.1c1.43-1.39,3-2.92,4.64-4.56,4.17-4.11,8.86-8.73,14-13.46,2.35.42,4.77.76,7,1l-.26.34c-3.25,4.43-2.17,8,.45,11.9,1.28,1.93,4,6,9.94,6a21,21,0,0,0,7.22-1.5c8.49-3.13,16.66-8.12,19-11.61,1-1.49,2-3,1.6-4.72a44,44,0,0,0,9.17-3c3.75-1.72,5.09-4.21,5.55-6,.81-3.09-.23-6.65-3.1-10.59-1.71-2.33-3.73-4.78-6.85-6a10.77,10.77,0,0,0,2.17-7.11c-.51-7.55-5.7-12.06-13.89-12.06ZM570.25,86.3a111,111,0,0,1,15.66-10.57c3.54-1.91,5.58-2.31,6.67-2.31s1.25.36,1.39.68.25.51.38.75c-.81.25-1.66.54-2.54.88A58.14,58.14,0,0,0,574.64,86.8l-4.39-.5Z"></path> </g> </g> </svg> 